<svg width="90" height="31" viewBox="0 0 90 31" fill="none" xmlns="http://www.w3.org/2000/svg">
<path d="M86.1378 17.7022L82.7835 24.4343V27.6019H80.4268V24.4623L77.0589 17.7021H79.7063L81.6054 21.7326L83.5041 17.7021L86.1378 17.7022ZM73.5746 20.6087C73.0669 20.0755 72.4246 19.8093 71.6482 19.8093C70.8721 19.8093 70.2303 20.0755 69.7217 20.6087C69.2132 21.141 68.9594 21.8225 68.9594 22.6523C68.9594 23.4817 69.2132 24.1628 69.7217 24.696C70.2303 25.2283 70.8717 25.4945 71.6482 25.4945C72.4246 25.4945 73.0669 25.2283 73.5746 24.696C74.0831 24.1628 74.3374 23.4817 74.3374 22.6523C74.3374 21.8225 74.0831 21.141 73.5746 20.6087ZM68.038 18.9963C69.0128 18.011 70.2162 17.5186 71.6486 17.5186C73.0806 17.5186 74.2844 18.011 75.2592 18.9963C76.2336 19.9811 76.721 21.1999 76.721 22.6523C76.721 24.1043 76.2336 25.3227 75.2592 26.3079C74.2844 27.2932 73.0806 27.7856 71.6486 27.7856C70.2162 27.7856 69.0128 27.2932 68.038 26.3079C67.0632 25.3227 66.5758 24.1043 66.5758 22.6523C66.5758 21.1999 67.0632 19.9811 68.038 18.9963ZM62.8281 21.04C62.8281 20.3422 62.426 19.9934 61.6226 19.9934H59.9173V22.0583H61.6226C62.426 22.0583 62.8281 21.7188 62.8281 21.04ZM62.9391 27.602L60.652 24.1651H59.9173V27.602H57.5615V17.7023H61.8856C62.9113 17.7023 63.7222 17.997 64.3181 18.5865C64.9144 19.1754 65.2121 19.9839 65.2121 21.0118C65.2121 22.5294 64.5653 23.5053 63.2716 23.9392L65.8221 27.6019L62.9391 27.602ZM55.9763 17.7023V19.9934H53.3285V27.602H50.9722V19.9934H48.3389V17.7023H55.9763ZM43.2329 21.3652C44.6931 21.6857 45.7255 22.0653 46.3305 22.5037C46.9359 22.9422 47.2386 23.6419 47.2386 24.6041C47.2386 25.0657 47.1583 25.4833 46.9964 25.8554C46.8344 26.2278 46.6266 26.532 46.3723 26.7678C46.1184 27.0037 45.8228 27.2013 45.4853 27.3619C45.1482 27.5219 44.8152 27.6326 44.4873 27.6943C44.1593 27.755 43.8293 27.7858 43.4967 27.7858C42.7849 27.7858 42.1567 27.687 41.6117 27.489C41.066 27.2912 40.6323 27.0223 40.3088 26.6827C39.9853 26.3436 39.7355 25.9809 39.5604 25.594C39.3844 25.2073 39.269 24.7879 39.2139 24.3353H41.5976C41.7173 24.7593 41.9144 25.0658 42.1869 25.2545C42.4594 25.4431 42.8917 25.5374 43.4827 25.5374C44.4069 25.5374 44.8687 25.2591 44.8687 24.7031C44.8687 24.4672 44.7602 24.3 44.5432 24.2012C44.3258 24.1023 43.8798 23.9817 43.2052 23.8407C43.1315 23.8307 43.0739 23.8215 43.0325 23.8121C42.9907 23.8025 42.9352 23.7886 42.8665 23.77C42.7969 23.7509 42.7298 23.7364 42.6652 23.7273C42.2031 23.6331 41.808 23.5241 41.4799 23.4018C41.1519 23.2794 40.8219 23.1076 40.4889 22.8857C40.1561 22.664 39.9023 22.3741 39.7267 22.0161C39.5507 21.6578 39.4633 21.2333 39.4633 20.7428C39.4633 20.0549 39.6503 19.4581 40.0249 18.954C40.3992 18.4498 40.8634 18.0842 41.4177 17.8581C41.9716 17.6318 42.5683 17.5189 43.2056 17.5189C44.4807 17.5189 45.4352 17.8254 46.0675 18.4381C46.7007 19.0507 47.0634 19.8378 47.1562 20.8H44.7718C44.6889 20.4698 44.5337 20.2151 44.3076 20.0364C44.0815 19.8569 43.7137 19.7671 43.2052 19.7671C42.7248 19.7671 42.3762 19.85 42.1588 20.0152C41.9422 20.1802 41.8333 20.3848 41.8333 20.6301C41.8333 20.8282 41.919 20.9696 42.0896 21.0545C42.261 21.1393 42.5679 21.2291 43.0114 21.3233C43.0578 21.3324 43.0971 21.3398 43.1294 21.3448C43.1613 21.3493 43.1961 21.3561 43.2329 21.3657V21.3652Z" fill="#2B2A29"/>
<path d="M82.9915 6.02134C82.4838 6.55361 82.2295 7.23516 82.2295 8.06506C82.2295 8.89433 82.4838 9.5755 82.9915 10.1087C83.5 10.6409 84.1423 10.9071 84.9187 10.9071C85.6943 10.9071 86.3366 10.6409 86.8451 10.1087C87.3537 9.5755 87.6071 8.89433 87.6071 8.06506C87.6071 7.23516 87.3537 6.55361 86.8451 6.02134C86.3366 5.48819 85.6943 5.22199 84.9187 5.22199C84.1423 5.22199 83.5 5.48819 82.9915 6.02134ZM89.9911 8.06506C89.9911 9.44122 89.5571 10.6007 88.6883 11.5438L89.9911 13.2976L88.2034 14.6832L86.8311 12.8451C86.2215 13.0809 85.5838 13.1982 84.9183 13.1982C83.4863 13.1982 82.2821 12.7058 81.3077 11.7206C80.3329 10.7353 79.8451 9.51689 79.8451 8.06506C79.8451 6.6126 80.3329 5.39379 81.3077 4.40906C82.2821 3.42367 83.4863 2.9313 84.9183 2.9313C86.3507 2.9313 87.5541 3.42367 88.5293 4.40906C89.5037 5.39379 89.9911 6.6126 89.9911 8.06506ZM73.3258 8.67262H75.4046L74.3656 5.58981L73.3258 8.67262ZM76.8743 13.0147L76.1814 10.9642H72.5497L71.8565 13.0147H69.3619L72.8823 3.11495H75.8481L79.3693 13.0147H76.8743ZM63.9235 10.7236H68.2616V13.0147H60.9431V10.7236L65.254 5.4063H61.1651V3.11508H68.2202L68.2339 5.4063L63.9235 10.7236ZM53.8002 8.67262H55.879L54.8396 5.58981L53.8002 8.67262ZM57.3483 13.0147L56.6555 10.9642H53.0241L52.3309 13.0147H49.8363L53.3567 3.11495H56.3225L59.8433 13.0147H57.3483ZM42.3601 6.02151C41.8524 6.55374 41.5981 7.23529 41.5981 8.06523C41.5981 8.89446 41.8524 9.57562 42.3601 10.1088C42.8686 10.641 43.5109 10.9072 44.2873 10.9072C45.0629 10.9072 45.7052 10.641 46.2137 10.1088C46.7223 9.57562 46.9757 8.89446 46.9757 8.06523C46.9757 7.23529 46.7223 6.55374 46.2137 6.02151C45.7052 5.48831 45.0629 5.22212 44.2873 5.22212C43.5109 5.22212 42.8686 5.48831 42.3601 6.02151ZM49.3597 8.06523C49.3597 9.44134 48.9257 10.6008 48.0569 11.5439L49.3597 13.2977L47.572 14.6833L46.1997 12.8452C45.5901 13.081 44.9524 13.1983 44.2869 13.1983C42.8549 13.1983 41.6507 12.706 40.6763 11.7207C39.7014 10.7354 39.2139 9.51702 39.2139 8.06523C39.2139 6.61272 39.7014 5.39392 40.6763 4.40919C41.6507 3.4238 42.8549 2.93144 44.2869 2.93144C45.7189 2.93144 46.9227 3.4238 47.8979 4.40919C48.8723 5.39392 49.3597 6.61272 49.3597 8.06523Z" fill="#2B2A29"/>
<path fill-rule="evenodd" clip-rule="evenodd" d="M14.6772 0.5C22.7455 0.5 29.2864 7.17314 29.2864 15.4056C29.2864 17.5701 28.8339 19.6263 28.0206 21.4823L34.0672 30.3113H22.2643L18.0031 24.0893L20.072 29.2614C18.4027 29.9387 16.5829 30.312 14.6772 30.312C6.61029 30.312 0.0693359 23.6385 0.0693359 15.4059C0.0693359 7.17339 6.61029 0.5 14.6772 0.5ZM14.6777 8.7773C16.4758 8.7773 18.1027 9.52269 19.2789 10.7266L17.4784 12.5806C18.8373 13.505 19.7328 15.0836 19.7328 16.8755C19.7328 19.6794 17.5397 21.9619 14.8079 22.0321L14.6777 22.034H14.6772C12.8795 22.0335 11.2525 21.2888 10.0769 20.0847L11.8769 18.2312C10.5175 17.3068 9.62193 15.7277 9.62193 13.9363C9.62193 11.0872 11.8858 8.7778 14.6777 8.7778L14.6772 8.7773H14.6777Z" fill="url(#paint0_linear_2_929)"/>
<defs>
<linearGradient id="paint0_linear_2_929" x1="27.2808" y1="27.5311" x2="6.38093" y2="3.69713" gradientUnits="userSpaceOnUse">
<stop stop-color="#0078BF"/>
<stop offset="1" stop-color="#00A0E3"/>
</linearGradient>
</defs>
</svg>
