<svg width="38" height="40" viewBox="0 0 38 40" fill="none" xmlns="http://www.w3.org/2000/svg">
<path d="M18.25 5.75L17.7531 5.92538C15.819 6.608 14.852 6.94931 14.301 7.72807C13.75 8.50682 13.75 9.53232 13.75 11.5833V13.4167C13.75 15.4677 13.75 16.4932 14.301 17.272C14.852 18.0507 15.819 18.392 17.7531 19.0746L18.25 19.25" stroke="black" stroke-width="1.125" stroke-linecap="round"/>
<path d="M25.75 12.5H18.25M25.75 12.5C25.75 11.9748 24.2543 10.9936 23.875 10.625M25.75 12.5C25.75 13.0252 24.2543 14.0064 23.875 14.375" stroke="black" stroke-width="1.125" stroke-linecap="round" stroke-linejoin="round"/>
<path d="M1.05682 36.5V27.7727H4.10795C4.71591 27.7727 5.21733 27.8778 5.61222 28.0881C6.0071 28.2955 6.30114 28.5753 6.49432 28.9276C6.6875 29.277 6.78409 29.6648 6.78409 30.0909C6.78409 30.4659 6.71733 30.7756 6.58381 31.0199C6.45313 31.2642 6.27983 31.4574 6.06392 31.5994C5.85085 31.7415 5.61932 31.8466 5.36932 31.9148V32C5.63636 32.017 5.90483 32.1108 6.17472 32.2812C6.4446 32.4517 6.67045 32.696 6.85227 33.0142C7.03409 33.3324 7.125 33.7216 7.125 34.1818C7.125 34.6193 7.02557 35.0128 6.8267 35.3622C6.62784 35.7116 6.31392 35.9886 5.88494 36.1932C5.45597 36.3977 4.89773 36.5 4.21023 36.5H1.05682ZM2.11364 35.5625H4.21023C4.90057 35.5625 5.39063 35.429 5.6804 35.1619C5.97301 34.892 6.11932 34.5653 6.11932 34.1818C6.11932 33.8864 6.04403 33.6136 5.89347 33.3636C5.7429 33.1108 5.52841 32.9091 5.25 32.7585C4.97159 32.6051 4.64205 32.5284 4.26136 32.5284H2.11364V35.5625ZM2.11364 31.608H4.07386C4.39205 31.608 4.67898 31.5455 4.93466 31.4205C5.19318 31.2955 5.39773 31.1193 5.5483 30.892C5.7017 30.6648 5.77841 30.3977 5.77841 30.0909C5.77841 29.7074 5.64489 29.3821 5.37784 29.1151C5.1108 28.8452 4.6875 28.7102 4.10795 28.7102H2.11364V31.608ZM9.59446 32.3239H11.4695C12.2365 32.3239 12.8232 32.5185 13.2294 32.9077C13.6357 33.2969 13.8388 33.7898 13.8388 34.3864C13.8388 34.7784 13.7479 35.1349 13.5661 35.456C13.3842 35.7741 13.1172 36.0284 12.7649 36.2188C12.4126 36.4062 11.9808 36.5 11.4695 36.5H8.72514V29.9545H9.73082V35.5625H11.4695C11.8672 35.5625 12.1939 35.4574 12.4496 35.2472C12.7053 35.0369 12.8331 34.767 12.8331 34.4375C12.8331 34.0909 12.7053 33.8082 12.4496 33.5895C12.1939 33.3707 11.8672 33.2614 11.4695 33.2614H9.59446V32.3239ZM14.8786 36.5V29.9545H15.8842V36.5H14.8786ZM18.7308 35.017L21.8842 29.9545H23.0433V36.5H22.0376V31.4375L18.9013 36.5H17.7251V29.9545H18.7308V35.017ZM21.2195 27.7727H22.157C22.157 28.233 21.9979 28.6094 21.6797 28.902C21.3615 29.1946 20.9297 29.3409 20.3842 29.3409C19.8473 29.3409 19.4197 29.1946 19.1016 28.902C18.7862 28.6094 18.6286 28.233 18.6286 27.7727H19.5661C19.5661 27.9943 19.6271 28.1889 19.7493 28.3565C19.8743 28.5241 20.0859 28.608 20.3842 28.608C20.6825 28.608 20.8956 28.5241 21.0234 28.3565C21.1541 28.1889 21.2195 27.9943 21.2195 27.7727ZM23.9947 30.892V29.9545H29.3129V30.892H27.1651V36.5H26.1594V30.892H23.9947ZM31.7855 35.017L34.9389 29.9545H36.098V36.5H35.0923V31.4375L31.956 36.5H30.7798V29.9545H31.7855V35.017Z" fill="#002033" fill-opacity="0.6"/>
</svg>
